<?xml version="1.0" encoding="UTF-8" standalone="no"?><svg xmlns="http://www.w3.org/2000/svg" xmlns:xlink="http://www.w3.org/1999/xlink" contentScriptType="application/ecmascript" contentStyleType="text/css" height="889px" preserveAspectRatio="none" style="width:1117px;height:889px;" version="1.1" viewBox="0 0 1117 889" width="1117px" zoomAndPan="magnify"><defs><filter height="300%" id="fvwp23kxi3pvg" width="300%" x="-1" y="-1"><feGaussianBlur result="blurOut" stdDeviation="2.0"/><feColorMatrix in="blurOut" result="blurOut2" type="matrix" values="0 0 0 0 0 0 0 0 0 0 0 0 0 0 0 0 0 0 .4 0"/><feOffset dx="4.0" dy="4.0" in="blurOut2" result="blurOut3"/><feBlend in="SourceGraphic" in2="blurOut3" mode="normal"/></filter></defs><g><text fill="#000000" font-family="sans-serif" font-size="18" lengthAdjust="spacingAndGlyphs" textLength="711" x="209" y="16.708">"Diagram Kelas (Class Diagram) - Sistem Informasi Laporan Gangguan BRS NET"</text><!--MD5=[5e686a149ef56329116cf2d31b3a111b]
cluster Domain Models (Eloquent ORM)--><polygon fill="#F7FAFC" filter="url(#fvwp23kxi3pvg)" points="22,316.9531,273,316.9531,280,339.25,717,339.25,717,877.9531,22,877.9531,22,316.9531" style="stroke: #4A5568; stroke-width: 1.5;"/><line style="stroke: #4A5568; stroke-width: 1.5;" x1="22" x2="280" y1="339.25" y2="339.25"/><text fill="#1A365D" font-family="sans-serif" font-size="14" font-weight="bold" lengthAdjust="spacingAndGlyphs" textLength="245" x="26" y="331.9482">Domain Models (Eloquent ORM)</text><!--MD5=[1b7176698e30e56f92bb60ac61b950b9]
cluster Presentation & Control Layer (Livewire & Filament)--><polygon fill="#F7FAFC" filter="url(#fvwp23kxi3pvg)" points="143,44.9531,553,44.9531,560,67.25,1095,67.25,1095,267.9531,143,267.9531,143,44.9531" style="stroke: #4A5568; stroke-width: 1.5;"/><line style="stroke: #4A5568; stroke-width: 1.5;" x1="143" x2="560" y1="67.25" y2="67.25"/><text fill="#1A365D" font-family="sans-serif" font-size="14" font-weight="bold" lengthAdjust="spacingAndGlyphs" textLength="404" x="147" y="59.9482">Presentation &amp; Control Layer (Livewire &amp; Filament)</text><!--MD5=[00fe8827a47282904f4ebf8365bb14ea]
class NamaPelanggan--><rect fill="#EBF8FF" filter="url(#fvwp23kxi3pvg)" height="235.5313" id="NamaPelanggan" style="stroke: #2B6CB0; stroke-width: 1.5;" width="188" x="511" y="625.9531"/><rect fill="#BEE3F8" height="40.2656" style="stroke: #2B6CB0; stroke-width: 1.5;" width="188" x="511" y="625.9531"/><ellipse cx="544" cy="646.0859" fill="#ADD1B2" rx="11" ry="11" style="stroke: #2B6CB0; stroke-width: 1.0;"/><path d="M546.9688,651.7266 Q546.3906,652.0234 545.75,652.1641 Q545.1094,652.3203 544.4063,652.3203 Q541.9063,652.3203 540.5781,650.6797 Q539.2656,649.0234 539.2656,645.8984 Q539.2656,642.7734 540.5781,641.1172 Q541.9063,639.4609 544.4063,639.4609 Q545.1094,639.4609 545.75,639.6172 Q546.4063,639.7734 546.9688,640.0703 L546.9688,642.7891 Q546.3438,642.2109 545.75,641.9453 Q545.1563,641.6641 544.5313,641.6641 Q543.1875,641.6641 542.5,642.7422 Q541.8125,643.8047 541.8125,645.8984 Q541.8125,647.9922 542.5,649.0703 Q543.1875,650.1328 544.5313,650.1328 Q545.1563,650.1328 545.75,649.8672 Q546.3438,649.5859 546.9688,649.0078 L546.9688,651.7266 Z "/><text fill="#1A365D" font-family="sans-serif" font-size="13" lengthAdjust="spacingAndGlyphs" textLength="106" x="567" y="643.02">NamaPelanggan</text><text fill="#1A365D" font-family="sans-serif" font-size="13" lengthAdjust="spacingAndGlyphs" textLength="116" x="562" y="658.1528">(Tiket Pengaduan)</text><line style="stroke: #2B6CB0; stroke-width: 1.5;" x1="512" x2="698" y1="666.2188" y2="666.2188"/><rect fill="none" height="6" style="stroke: #C82930; stroke-width: 1.0;" width="6" x="519" y="674.2188"/><text fill="#2D3748" font-family="sans-serif" font-size="11" lengthAdjust="spacingAndGlyphs" textLength="108" x="531" y="680.4292">id: BigInteger «PK»</text><rect fill="none" height="6" style="stroke: #C82930; stroke-width: 1.0;" width="6" x="519" y="687.0234"/><text fill="#2D3748" font-family="sans-serif" font-size="11" lengthAdjust="spacingAndGlyphs" textLength="162" x="531" y="693.2339">kode_ticket: String «Unique»</text><rect fill="none" height="6" style="stroke: #C82930; stroke-width: 1.0;" width="6" x="519" y="699.8281"/><text fill="#2D3748" font-family="sans-serif" font-size="11" lengthAdjust="spacingAndGlyphs" textLength="139" x="531" y="706.0386">nama_pelanggan: String</text><rect fill="none" height="6" style="stroke: #C82930; stroke-width: 1.0;" width="6" x="519" y="712.6328"/><text fill="#2D3748" font-family="sans-serif" font-size="11" lengthAdjust="spacingAndGlyphs" textLength="71" x="531" y="718.8433">alamat: Text</text><rect fill="none" height="6" style="stroke: #C82930; stroke-width: 1.0;" width="6" x="519" y="725.4375"/><text fill="#2D3748" font-family="sans-serif" font-size="11" lengthAdjust="spacingAndGlyphs" textLength="157" x="531" y="731.6479">keluhan_id: BigInteger «FK»</text><rect fill="none" height="6" style="stroke: #C82930; stroke-width: 1.0;" width="6" x="519" y="738.2422"/><text fill="#2D3748" font-family="sans-serif" font-size="11" lengthAdjust="spacingAndGlyphs" textLength="149" x="531" y="744.4526">status_id: BigInteger «FK»</text><rect fill="#F24D5C" height="6" style="stroke: #C82930; stroke-width: 1.0;" width="6" x="519" y="751.0469"/><text fill="#2D3748" font-family="sans-serif" font-size="11" lengthAdjust="spacingAndGlyphs" textLength="128" x="531" y="757.2573">latitude: Decimal(10,8)</text><rect fill="#F24D5C" height="6" style="stroke: #C82930; stroke-width: 1.0;" width="6" x="519" y="763.8516"/><text fill="#2D3748" font-family="sans-serif" font-size="11" lengthAdjust="spacingAndGlyphs" textLength="138" x="531" y="770.062">longitude: Decimal(11,8)</text><rect fill="none" height="6" style="stroke: #C82930; stroke-width: 1.0;" width="6" x="519" y="776.6563"/><text fill="#2D3748" font-family="sans-serif" font-size="11" lengthAdjust="spacingAndGlyphs" textLength="143" x="531" y="782.8667">google_maps_link: String</text><rect fill="none" height="6" style="stroke: #C82930; stroke-width: 1.0;" width="6" x="519" y="789.4609"/><text fill="#2D3748" font-family="sans-serif" font-size="11" lengthAdjust="spacingAndGlyphs" textLength="132" x="531" y="795.6714">created_at: Timestamp</text><rect fill="none" height="6" style="stroke: #C82930; stroke-width: 1.0;" width="6" x="519" y="802.2656"/><text fill="#2D3748" font-family="sans-serif" font-size="11" lengthAdjust="spacingAndGlyphs" textLength="135" x="531" y="808.4761">updated_at: Timestamp</text><line style="stroke: #2B6CB0; stroke-width: 1.0;" x1="512" x2="698" y1="815.0703" y2="815.0703"/><ellipse cx="522" cy="826.0703" fill="#84BE84" rx="3" ry="3" style="stroke: #038048; stroke-width: 1.0;"/><text fill="#2D3748" font-family="sans-serif" font-size="11" lengthAdjust="spacingAndGlyphs" textLength="113" x="531" y="829.2808">static booted(): void</text><ellipse cx="522" cy="838.875" fill="#84BE84" rx="3" ry="3" style="stroke: #038048; stroke-width: 1.0;"/><text fill="#2D3748" font-family="sans-serif" font-size="11" lengthAdjust="spacingAndGlyphs" textLength="112" x="531" y="842.0854">status(): BelongsTo</text><ellipse cx="522" cy="851.6797" fill="#84BE84" rx="3" ry="3" style="stroke: #038048; stroke-width: 1.0;"/><text fill="#2D3748" font-family="sans-serif" font-size="11" lengthAdjust="spacingAndGlyphs" textLength="120" x="531" y="854.8901">keluhan(): BelongsTo</text><!--MD5=[b01e97b9cf9191f81391dadf60a17edd]
class Keluhan--><rect fill="#EBF8FF" filter="url(#fvwp23kxi3pvg)" height="120.2891" id="Keluhan" style="stroke: #2B6CB0; stroke-width: 1.5;" width="191" x="509.5" y="390.4531"/><rect fill="#BEE3F8" height="40.2656" style="stroke: #2B6CB0; stroke-width: 1.5;" width="191" x="509.5" y="390.4531"/><ellipse cx="540.25" cy="410.5859" fill="#ADD1B2" rx="11" ry="11" style="stroke: #2B6CB0; stroke-width: 1.0;"/><path d="M543.2188,416.2266 Q542.6406,416.5234 542,416.6641 Q541.3594,416.8203 540.6563,416.8203 Q538.1563,416.8203 536.8281,415.1797 Q535.5156,413.5234 535.5156,410.3984 Q535.5156,407.2734 536.8281,405.6172 Q538.1563,403.9609 540.6563,403.9609 Q541.3594,403.9609 542,404.1172 Q542.6563,404.2734 543.2188,404.5703 L543.2188,407.2891 Q542.5938,406.7109 542,406.4453 Q541.4063,406.1641 540.7813,406.1641 Q539.4375,406.1641 538.75,407.2422 Q538.0625,408.3047 538.0625,410.3984 Q538.0625,412.4922 538.75,413.5703 Q539.4375,414.6328 540.7813,414.6328 Q541.4063,414.6328 542,414.3672 Q542.5938,414.0859 543.2188,413.5078 L543.2188,416.2266 Z "/><text fill="#1A365D" font-family="sans-serif" font-size="13" lengthAdjust="spacingAndGlyphs" textLength="51" x="594.25" y="407.52">Keluhan</text><text fill="#1A365D" font-family="sans-serif" font-size="13" lengthAdjust="spacingAndGlyphs" textLength="124" x="557.75" y="422.6528">(Master Gangguan)</text><line style="stroke: #2B6CB0; stroke-width: 1.5;" x1="510.5" x2="699.5" y1="430.7188" y2="430.7188"/><rect fill="none" height="6" style="stroke: #C82930; stroke-width: 1.0;" width="6" x="517.5" y="438.7188"/><text fill="#2D3748" font-family="sans-serif" font-size="11" lengthAdjust="spacingAndGlyphs" textLength="108" x="529.5" y="444.9292">id: BigInteger «PK»</text><rect fill="none" height="6" style="stroke: #C82930; stroke-width: 1.0;" width="6" x="517.5" y="451.5234"/><text fill="#2D3748" font-family="sans-serif" font-size="11" lengthAdjust="spacingAndGlyphs" textLength="124" x="529.5" y="457.7339">nama_keluhan: String</text><rect fill="none" height="6" style="stroke: #C82930; stroke-width: 1.0;" width="6" x="517.5" y="464.3281"/><text fill="#2D3748" font-family="sans-serif" font-size="11" lengthAdjust="spacingAndGlyphs" textLength="132" x="529.5" y="470.5386">created_at: Timestamp</text><rect fill="none" height="6" style="stroke: #C82930; stroke-width: 1.0;" width="6" x="517.5" y="477.1328"/><text fill="#2D3748" font-family="sans-serif" font-size="11" lengthAdjust="spacingAndGlyphs" textLength="135" x="529.5" y="483.3433">updated_at: Timestamp</text><line style="stroke: #2B6CB0; stroke-width: 1.0;" x1="510.5" x2="699.5" y1="489.9375" y2="489.9375"/><ellipse cx="520.5" cy="500.9375" fill="#84BE84" rx="3" ry="3" style="stroke: #038048; stroke-width: 1.0;"/><text fill="#2D3748" font-family="sans-serif" font-size="11" lengthAdjust="spacingAndGlyphs" textLength="165" x="529.5" y="504.1479">namaPelanggans(): HasMany</text><!--MD5=[e3d83ec5fd90ea9f3f2bfe265cb53458]
class Status--><rect fill="#EBF8FF" filter="url(#fvwp23kxi3pvg)" height="120.2891" id="Status" style="stroke: #2B6CB0; stroke-width: 1.5;" width="191" x="283.5" y="390.4531"/><rect fill="#BEE3F8" height="40.2656" style="stroke: #2B6CB0; stroke-width: 1.5;" width="191" x="283.5" y="390.4531"/><ellipse cx="325.05" cy="410.5859" fill="#ADD1B2" rx="11" ry="11" style="stroke: #2B6CB0; stroke-width: 1.0;"/><path d="M328.0188,416.2266 Q327.4406,416.5234 326.8,416.6641 Q326.1594,416.8203 325.4563,416.8203 Q322.9563,416.8203 321.6281,415.1797 Q320.3156,413.5234 320.3156,410.3984 Q320.3156,407.2734 321.6281,405.6172 Q322.9563,403.9609 325.4563,403.9609 Q326.1594,403.9609 326.8,404.1172 Q327.4563,404.2734 328.0188,404.5703 L328.0188,407.2891 Q327.3938,406.7109 326.8,406.4453 Q326.2063,406.1641 325.5813,406.1641 Q324.2375,406.1641 323.55,407.2422 Q322.8625,408.3047 322.8625,410.3984 Q322.8625,412.4922 323.55,413.5703 Q324.2375,414.6328 325.5813,414.6328 Q326.2063,414.6328 326.8,414.3672 Q327.3938,414.0859 328.0188,413.5078 L328.0188,416.2266 Z "/><text fill="#1A365D" font-family="sans-serif" font-size="13" lengthAdjust="spacingAndGlyphs" textLength="42" x="373.95" y="407.52">Status</text><text fill="#1A365D" font-family="sans-serif" font-size="13" lengthAdjust="spacingAndGlyphs" textLength="100" x="344.95" y="422.6528">(Master Status)</text><line style="stroke: #2B6CB0; stroke-width: 1.5;" x1="284.5" x2="473.5" y1="430.7188" y2="430.7188"/><rect fill="none" height="6" style="stroke: #C82930; stroke-width: 1.0;" width="6" x="291.5" y="438.7188"/><text fill="#2D3748" font-family="sans-serif" font-size="11" lengthAdjust="spacingAndGlyphs" textLength="108" x="303.5" y="444.9292">id: BigInteger «PK»</text><rect fill="none" height="6" style="stroke: #C82930; stroke-width: 1.0;" width="6" x="291.5" y="451.5234"/><text fill="#2D3748" font-family="sans-serif" font-size="11" lengthAdjust="spacingAndGlyphs" textLength="116" x="303.5" y="457.7339">nama_status: String</text><rect fill="none" height="6" style="stroke: #C82930; stroke-width: 1.0;" width="6" x="291.5" y="464.3281"/><text fill="#2D3748" font-family="sans-serif" font-size="11" lengthAdjust="spacingAndGlyphs" textLength="132" x="303.5" y="470.5386">created_at: Timestamp</text><rect fill="none" height="6" style="stroke: #C82930; stroke-width: 1.0;" width="6" x="291.5" y="477.1328"/><text fill="#2D3748" font-family="sans-serif" font-size="11" lengthAdjust="spacingAndGlyphs" textLength="135" x="303.5" y="483.3433">updated_at: Timestamp</text><line style="stroke: #2B6CB0; stroke-width: 1.0;" x1="284.5" x2="473.5" y1="489.9375" y2="489.9375"/><ellipse cx="294.5" cy="500.9375" fill="#84BE84" rx="3" ry="3" style="stroke: #038048; stroke-width: 1.0;"/><text fill="#2D3748" font-family="sans-serif" font-size="11" lengthAdjust="spacingAndGlyphs" textLength="165" x="303.5" y="504.1479">namaPelanggans(): HasMany</text><!--MD5=[3fd616f346a44cd59a91eb10b19e157c]
class User--><rect fill="#EBF8FF" filter="url(#fvwp23kxi3pvg)" height="197.1172" id="User" style="stroke: #2B6CB0; stroke-width: 1.5;" width="210" x="38" y="351.9531"/><rect fill="#BEE3F8" height="40.2656" style="stroke: #2B6CB0; stroke-width: 1.5;" width="210" x="38" y="351.9531"/><ellipse cx="82.25" cy="372.0859" fill="#ADD1B2" rx="11" ry="11" style="stroke: #2B6CB0; stroke-width: 1.0;"/><path d="M85.2188,377.7266 Q84.6406,378.0234 84,378.1641 Q83.3594,378.3203 82.6563,378.3203 Q80.1563,378.3203 78.8281,376.6797 Q77.5156,375.0234 77.5156,371.8984 Q77.5156,368.7734 78.8281,367.1172 Q80.1563,365.4609 82.6563,365.4609 Q83.3594,365.4609 84,365.6172 Q84.6563,365.7734 85.2188,366.0703 L85.2188,368.7891 Q84.5938,368.2109 84,367.9453 Q83.4063,367.6641 82.7813,367.6641 Q81.4375,367.6641 80.75,368.7422 Q80.0625,369.8047 80.0625,371.8984 Q80.0625,373.9922 80.75,375.0703 Q81.4375,376.1328 82.7813,376.1328 Q83.4063,376.1328 84,375.8672 Q84.5938,375.5859 85.2188,375.0078 L85.2188,377.7266 Z "/><text fill="#1A365D" font-family="sans-serif" font-size="13" lengthAdjust="spacingAndGlyphs" textLength="30" x="144.25" y="369.02">User</text><text fill="#1A365D" font-family="sans-serif" font-size="13" lengthAdjust="spacingAndGlyphs" textLength="113" x="102.75" y="384.1528">(Admin &amp; Teknisi)</text><line style="stroke: #2B6CB0; stroke-width: 1.5;" x1="39" x2="247" y1="392.2188" y2="392.2188"/><rect fill="none" height="6" style="stroke: #C82930; stroke-width: 1.0;" width="6" x="46" y="400.2188"/><text fill="#2D3748" font-family="sans-serif" font-size="11" lengthAdjust="spacingAndGlyphs" textLength="108" x="58" y="406.4292">id: BigInteger «PK»</text><rect fill="none" height="6" style="stroke: #C82930; stroke-width: 1.0;" width="6" x="46" y="413.0234"/><text fill="#2D3748" font-family="sans-serif" font-size="11" lengthAdjust="spacingAndGlyphs" textLength="74" x="58" y="419.2339">name: String</text><rect fill="none" height="6" style="stroke: #C82930; stroke-width: 1.0;" width="6" x="46" y="425.8281"/><text fill="#2D3748" font-family="sans-serif" font-size="11" lengthAdjust="spacingAndGlyphs" textLength="130" x="58" y="432.0386">email: String «Unique»</text><rect fill="none" height="6" style="stroke: #C82930; stroke-width: 1.0;" width="6" x="46" y="438.6328"/><text fill="#2D3748" font-family="sans-serif" font-size="11" lengthAdjust="spacingAndGlyphs" textLength="98" x="58" y="444.8433">password: String</text><rect fill="none" height="6" style="stroke: #C82930; stroke-width: 1.0;" width="6" x="46" y="451.4375"/><text fill="#2D3748" font-family="sans-serif" font-size="11" lengthAdjust="spacingAndGlyphs" textLength="99" x="58" y="457.6479">avatar_url: String</text><rect fill="none" height="6" style="stroke: #C82930; stroke-width: 1.0;" width="6" x="46" y="464.2422"/><text fill="#2D3748" font-family="sans-serif" font-size="11" lengthAdjust="spacingAndGlyphs" textLength="139" x="58" y="470.4526">remember_token: String</text><rect fill="none" height="6" style="stroke: #C82930; stroke-width: 1.0;" width="6" x="46" y="477.0469"/><text fill="#2D3748" font-family="sans-serif" font-size="11" lengthAdjust="spacingAndGlyphs" textLength="132" x="58" y="483.2573">created_at: Timestamp</text><rect fill="none" height="6" style="stroke: #C82930; stroke-width: 1.0;" width="6" x="46" y="489.8516"/><text fill="#2D3748" font-family="sans-serif" font-size="11" lengthAdjust="spacingAndGlyphs" textLength="135" x="58" y="496.062">updated_at: Timestamp</text><line style="stroke: #2B6CB0; stroke-width: 1.0;" x1="39" x2="247" y1="502.6563" y2="502.6563"/><ellipse cx="49" cy="513.6563" fill="#84BE84" rx="3" ry="3" style="stroke: #038048; stroke-width: 1.0;"/><text fill="#2D3748" font-family="sans-serif" font-size="11" lengthAdjust="spacingAndGlyphs" textLength="168" x="58" y="516.8667">getFilamentAvatarUrl(): String</text><ellipse cx="49" cy="526.4609" fill="#84BE84" rx="3" ry="3" style="stroke: #038048; stroke-width: 1.0;"/><text fill="#2D3748" font-family="sans-serif" font-size="11" lengthAdjust="spacingAndGlyphs" textLength="184" x="58" y="529.6714">canAccessPanel(Panel): Boolean</text><ellipse cx="49" cy="539.2656" fill="#84BE84" rx="3" ry="3" style="stroke: #038048; stroke-width: 1.0;"/><text fill="#2D3748" font-family="sans-serif" font-size="11" lengthAdjust="spacingAndGlyphs" textLength="138" x="58" y="542.4761">hasRole(Roles): Boolean</text><!--MD5=[fc1c197aa35c49a947f14136570fd9bd]
class LivewireHome--><rect fill="#EBF8FF" filter="url(#fvwp23kxi3pvg)" height="171.5078" id="LivewireHome" style="stroke: #2B6CB0; stroke-width: 1.5;" width="165" x="622.5" y="79.9531"/><rect fill="#BEE3F8" height="40.2656" style="stroke: #2B6CB0; stroke-width: 1.5;" width="165" x="622.5" y="79.9531"/><ellipse cx="655.5" cy="100.0859" fill="#ADD1B2" rx="11" ry="11" style="stroke: #2B6CB0; stroke-width: 1.0;"/><path d="M658.4688,105.7266 Q657.8906,106.0234 657.25,106.1641 Q656.6094,106.3203 655.9063,106.3203 Q653.4063,106.3203 652.0781,104.6797 Q650.7656,103.0234 650.7656,99.8984 Q650.7656,96.7734 652.0781,95.1172 Q653.4063,93.4609 655.9063,93.4609 Q656.6094,93.4609 657.25,93.6172 Q657.9063,93.7734 658.4688,94.0703 L658.4688,96.7891 Q657.8438,96.2109 657.25,95.9453 Q656.6563,95.6641 656.0313,95.6641 Q654.6875,95.6641 654,96.7422 Q653.3125,97.8047 653.3125,99.8984 Q653.3125,101.9922 654,103.0703 Q654.6875,104.1328 656.0313,104.1328 Q656.6563,104.1328 657.25,103.8672 Q657.8438,103.5859 658.4688,103.0078 L658.4688,105.7266 Z "/><text fill="#1A365D" font-family="sans-serif" font-size="13" lengthAdjust="spacingAndGlyphs" textLength="93" x="673.5" y="97.02">Livewire\Home</text><text fill="#1A365D" font-family="sans-serif" font-size="13" lengthAdjust="spacingAndGlyphs" textLength="88" x="676" y="112.1528">(Portal Publik)</text><line style="stroke: #2B6CB0; stroke-width: 1.5;" x1="623.5" x2="786.5" y1="120.2188" y2="120.2188"/><ellipse cx="633.5" cy="131.2188" fill="none" rx="3" ry="3" style="stroke: #038048; stroke-width: 1.0;"/><text fill="#2D3748" font-family="sans-serif" font-size="11" lengthAdjust="spacingAndGlyphs" textLength="139" x="642.5" y="134.4292">nama_pelanggan: String</text><ellipse cx="633.5" cy="144.0234" fill="none" rx="3" ry="3" style="stroke: #038048; stroke-width: 1.0;"/><text fill="#2D3748" font-family="sans-serif" font-size="11" lengthAdjust="spacingAndGlyphs" textLength="108" x="642.5" y="147.2339">keluhan_id: Integer</text><ellipse cx="633.5" cy="156.8281" fill="none" rx="3" ry="3" style="stroke: #038048; stroke-width: 1.0;"/><text fill="#2D3748" font-family="sans-serif" font-size="11" lengthAdjust="spacingAndGlyphs" textLength="81" x="642.5" y="160.0386">alamat: String</text><ellipse cx="633.5" cy="169.6328" fill="none" rx="3" ry="3" style="stroke: #038048; stroke-width: 1.0;"/><text fill="#2D3748" font-family="sans-serif" font-size="11" lengthAdjust="spacingAndGlyphs" textLength="77" x="642.5" y="172.8433">latitude: Float</text><ellipse cx="633.5" cy="182.4375" fill="none" rx="3" ry="3" style="stroke: #038048; stroke-width: 1.0;"/><text fill="#2D3748" font-family="sans-serif" font-size="11" lengthAdjust="spacingAndGlyphs" textLength="87" x="642.5" y="185.6479">longitude: Float</text><ellipse cx="633.5" cy="195.2422" fill="none" rx="3" ry="3" style="stroke: #038048; stroke-width: 1.0;"/><text fill="#2D3748" font-family="sans-serif" font-size="11" lengthAdjust="spacingAndGlyphs" textLength="105" x="642.5" y="198.4526">ticket_code: String</text><line style="stroke: #2B6CB0; stroke-width: 1.0;" x1="623.5" x2="786.5" y1="205.0469" y2="205.0469"/><ellipse cx="633.5" cy="216.0469" fill="#84BE84" rx="3" ry="3" style="stroke: #038048; stroke-width: 1.0;"/><text fill="#2D3748" font-family="sans-serif" font-size="11" lengthAdjust="spacingAndGlyphs" textLength="123" x="642.5" y="219.2573">saveComplaint(): void</text><ellipse cx="633.5" cy="228.8516" fill="#84BE84" rx="3" ry="3" style="stroke: #038048; stroke-width: 1.0;"/><text fill="#2D3748" font-family="sans-serif" font-size="11" lengthAdjust="spacingAndGlyphs" textLength="111" x="642.5" y="232.062">searchTicket(): void</text><ellipse cx="633.5" cy="241.6563" fill="#84BE84" rx="3" ry="3" style="stroke: #038048; stroke-width: 1.0;"/><text fill="#2D3748" font-family="sans-serif" font-size="11" lengthAdjust="spacingAndGlyphs" textLength="80" x="642.5" y="244.8667">render(): View</text><!--MD5=[48e61ce62d7094032ba08e8ed4811032]
class NamaPelangganResource--><rect fill="#EBF8FF" filter="url(#fvwp23kxi3pvg)" height="94.6797" id="NamaPelangganResource" style="stroke: #2B6CB0; stroke-width: 1.5;" width="256" x="823" y="118.4531"/><rect fill="#BEE3F8" height="40.2656" style="stroke: #2B6CB0; stroke-width: 1.5;" width="256" x="823" y="118.4531"/><ellipse cx="838" cy="138.5859" fill="#ADD1B2" rx="11" ry="11" style="stroke: #2B6CB0; stroke-width: 1.0;"/><path d="M840.9688,144.2266 Q840.3906,144.5234 839.75,144.6641 Q839.1094,144.8203 838.4063,144.8203 Q835.9063,144.8203 834.5781,143.1797 Q833.2656,141.5234 833.2656,138.3984 Q833.2656,135.2734 834.5781,133.6172 Q835.9063,131.9609 838.4063,131.9609 Q839.1094,131.9609 839.75,132.1172 Q840.4063,132.2734 840.9688,132.5703 L840.9688,135.2891 Q840.3438,134.7109 839.75,134.4453 Q839.1563,134.1641 838.5313,134.1641 Q837.1875,134.1641 836.5,135.2422 Q835.8125,136.3047 835.8125,138.3984 Q835.8125,140.4922 836.5,141.5703 Q837.1875,142.6328 838.5313,142.6328 Q839.1563,142.6328 839.75,142.3672 Q840.3438,142.0859 840.9688,141.5078 L840.9688,144.2266 Z "/><text fill="#1A365D" font-family="sans-serif" font-size="13" lengthAdjust="spacingAndGlyphs" textLength="224" x="852" y="135.52">Filament\NamaPelangganResource</text><text fill="#1A365D" font-family="sans-serif" font-size="13" lengthAdjust="spacingAndGlyphs" textLength="119" x="904.5" y="150.6528">(Manajemen Tiket)</text><line style="stroke: #2B6CB0; stroke-width: 1.5;" x1="824" x2="1078" y1="158.7188" y2="158.7188"/><line style="stroke: #2B6CB0; stroke-width: 1.5;" x1="824" x2="1078" y1="166.7188" y2="166.7188"/><ellipse cx="834" cy="177.7188" fill="#84BE84" rx="3" ry="3" style="stroke: #038048; stroke-width: 1.0;"/><text fill="#2D3748" font-family="sans-serif" font-size="11" lengthAdjust="spacingAndGlyphs" textLength="136" x="843" y="180.9292">static form(Form): Form</text><ellipse cx="834" cy="190.5234" fill="#84BE84" rx="3" ry="3" style="stroke: #038048; stroke-width: 1.0;"/><text fill="#2D3748" font-family="sans-serif" font-size="11" lengthAdjust="spacingAndGlyphs" textLength="141" x="843" y="193.7339">static table(Table): Table</text><ellipse cx="834" cy="203.3281" fill="#84BE84" rx="3" ry="3" style="stroke: #038048; stroke-width: 1.0;"/><text fill="#2D3748" font-family="sans-serif" font-size="11" lengthAdjust="spacingAndGlyphs" textLength="134" x="843" y="206.5386">static getPages(): Array</text><!--MD5=[abdb31f6673f37d9e59591a2b9a780fc]
class KeluhanResource--><rect fill="#EBF8FF" filter="url(#fvwp23kxi3pvg)" height="81.875" id="KeluhanResource" style="stroke: #2B6CB0; stroke-width: 1.5;" width="201" x="386.5" y="124.9531"/><rect fill="#BEE3F8" height="40.2656" style="stroke: #2B6CB0; stroke-width: 1.5;" width="201" x="386.5" y="124.9531"/><ellipse cx="401.5" cy="145.0859" fill="#ADD1B2" rx="11" ry="11" style="stroke: #2B6CB0; stroke-width: 1.0;"/><path d="M404.4688,150.7266 Q403.8906,151.0234 403.25,151.1641 Q402.6094,151.3203 401.9063,151.3203 Q399.4063,151.3203 398.0781,149.6797 Q396.7656,148.0234 396.7656,144.8984 Q396.7656,141.7734 398.0781,140.1172 Q399.4063,138.4609 401.9063,138.4609 Q402.6094,138.4609 403.25,138.6172 Q403.9063,138.7734 404.4688,139.0703 L404.4688,141.7891 Q403.8438,141.2109 403.25,140.9453 Q402.6563,140.6641 402.0313,140.6641 Q400.6875,140.6641 400,141.7422 Q399.3125,142.8047 399.3125,144.8984 Q399.3125,146.9922 400,148.0703 Q400.6875,149.1328 402.0313,149.1328 Q402.6563,149.1328 403.25,148.8672 Q403.8438,148.5859 404.4688,148.0078 L404.4688,150.7266 Z "/><text fill="#1A365D" font-family="sans-serif" font-size="13" lengthAdjust="spacingAndGlyphs" textLength="169" x="415.5" y="142.02">Filament\KeluhanResource</text><text fill="#1A365D" font-family="sans-serif" font-size="13" lengthAdjust="spacingAndGlyphs" textLength="140" x="430" y="157.1528">(Manajemen Keluhan)</text><line style="stroke: #2B6CB0; stroke-width: 1.5;" x1="387.5" x2="586.5" y1="165.2188" y2="165.2188"/><line style="stroke: #2B6CB0; stroke-width: 1.5;" x1="387.5" x2="586.5" y1="173.2188" y2="173.2188"/><ellipse cx="397.5" cy="184.2188" fill="#84BE84" rx="3" ry="3" style="stroke: #038048; stroke-width: 1.0;"/><text fill="#2D3748" font-family="sans-serif" font-size="11" lengthAdjust="spacingAndGlyphs" textLength="136" x="406.5" y="187.4292">static form(Form): Form</text><ellipse cx="397.5" cy="197.0234" fill="#84BE84" rx="3" ry="3" style="stroke: #038048; stroke-width: 1.0;"/><text fill="#2D3748" font-family="sans-serif" font-size="11" lengthAdjust="spacingAndGlyphs" textLength="141" x="406.5" y="200.2339">static table(Table): Table</text><!--MD5=[041c0f735d41156ea37dc952797d1ef7]
class StatusResource--><rect fill="#EBF8FF" filter="url(#fvwp23kxi3pvg)" height="81.875" id="StatusResource" style="stroke: #2B6CB0; stroke-width: 1.5;" width="192" x="159" y="124.9531"/><rect fill="#BEE3F8" height="40.2656" style="stroke: #2B6CB0; stroke-width: 1.5;" width="192" x="159" y="124.9531"/><ellipse cx="174" cy="145.0859" fill="#ADD1B2" rx="11" ry="11" style="stroke: #2B6CB0; stroke-width: 1.0;"/><path d="M176.9688,150.7266 Q176.3906,151.0234 175.75,151.1641 Q175.1094,151.3203 174.4063,151.3203 Q171.9063,151.3203 170.5781,149.6797 Q169.2656,148.0234 169.2656,144.8984 Q169.2656,141.7734 170.5781,140.1172 Q171.9063,138.4609 174.4063,138.4609 Q175.1094,138.4609 175.75,138.6172 Q176.4063,138.7734 176.9688,139.0703 L176.9688,141.7891 Q176.3438,141.2109 175.75,140.9453 Q175.1563,140.6641 174.5313,140.6641 Q173.1875,140.6641 172.5,141.7422 Q171.8125,142.8047 171.8125,144.8984 Q171.8125,146.9922 172.5,148.0703 Q173.1875,149.1328 174.5313,149.1328 Q175.1563,149.1328 175.75,148.8672 Q176.3438,148.5859 176.9688,148.0078 L176.9688,150.7266 Z "/><text fill="#1A365D" font-family="sans-serif" font-size="13" lengthAdjust="spacingAndGlyphs" textLength="160" x="188" y="142.02">Filament\StatusResource</text><text fill="#1A365D" font-family="sans-serif" font-size="13" lengthAdjust="spacingAndGlyphs" textLength="131" x="202.5" y="157.1528">(Manajemen Status)</text><line style="stroke: #2B6CB0; stroke-width: 1.5;" x1="160" x2="350" y1="165.2188" y2="165.2188"/><line style="stroke: #2B6CB0; stroke-width: 1.5;" x1="160" x2="350" y1="173.2188" y2="173.2188"/><ellipse cx="170" cy="184.2188" fill="#84BE84" rx="3" ry="3" style="stroke: #038048; stroke-width: 1.0;"/><text fill="#2D3748" font-family="sans-serif" font-size="11" lengthAdjust="spacingAndGlyphs" textLength="136" x="179" y="187.4292">static form(Form): Form</text><ellipse cx="170" cy="197.0234" fill="#84BE84" rx="3" ry="3" style="stroke: #038048; stroke-width: 1.0;"/><text fill="#2D3748" font-family="sans-serif" font-size="11" lengthAdjust="spacingAndGlyphs" textLength="141" x="179" y="200.2339">static table(Table): Table</text><path d="M734.5,700.9531 L734.5,739.9531 L699.16,743.9531 L734.5,747.9531 L734.5,786.6172 A0,0 0 0 0 734.5,786.6172 L999.5,786.6172 A0,0 0 0 0 999.5,786.6172 L999.5,710.9531 L989.5,700.9531 L734.5,700.9531 A0,0 0 0 0 734.5,700.9531 " fill="#FBFB77" filter="url(#fvwp23kxi3pvg)" style="stroke: #A80036; stroke-width: 1.0;"/><path d="M989.5,700.9531 L989.5,710.9531 L999.5,710.9531 L989.5,700.9531 " fill="#FBFB77" style="stroke: #A80036; stroke-width: 1.0;"/><text fill="#000000" font-family="sans-serif" font-size="13" font-weight="bold" lengthAdjust="spacingAndGlyphs" textLength="138" x="740.5" y="718.02">SBDT Architecture:</text><text fill="#000000" font-family="sans-serif" font-size="13" lengthAdjust="spacingAndGlyphs" textLength="169" x="740.5" y="733.1528">- Write/Insert ➔ db_master</text><text fill="#000000" font-family="sans-serif" font-size="13" lengthAdjust="spacingAndGlyphs" textLength="244" x="740.5" y="748.2856">- Read/Select ➔ db_slave1 / db_slave2</text><text fill="#000000" font-family="sans-serif" font-size="13" lengthAdjust="spacingAndGlyphs" textLength="207" x="740.5" y="763.4185">- Otomatis generate kode_ticket</text><text fill="#000000" font-family="sans-serif" font-size="13" lengthAdjust="spacingAndGlyphs" textLength="145" x="748.5" y="778.5513">pada method booted()</text><!--MD5=[f2e91c463fd27d4d984ece8dbd08bcbb]
reverse link Keluhan to NamaPelanggan--><path d="M597.76,515.8131 C595.8,535.9931 593.97,558.3731 593,578.9531 C592.29,594.0631 592.39,609.9531 592.99,625.6431 " fill="none" id="Keluhan&lt;-NamaPelanggan" style="stroke: #2B6CB0; stroke-width: 1.0;"/><polygon fill="#2B6CB0" points="598.26,510.7231,593.4038,519.2915,597.7738,515.6994,601.3659,520.0694,598.26,510.7231" style="stroke: #2B6CB0; stroke-width: 1.0;"/><text fill="#000000" font-family="sans-serif" font-size="13" lengthAdjust="spacingAndGlyphs" textLength="150" x="594" y="592.02">memiliki &lt; (keluhan_id)</text><text fill="#000000" font-family="sans-serif" font-size="13" lengthAdjust="spacingAndGlyphs" textLength="8" x="589.0182" y="530.6169">1</text><text fill="#000000" font-family="sans-serif" font-size="13" lengthAdjust="spacingAndGlyphs" textLength="23" x="568.5574" y="615.0618">0..*</text><!--MD5=[0220a0dc9848185e1946bd3d7c4c2c6f]
reverse link Status to NamaPelanggan--><path d="M400.16,515.5831 C410.51,541.8431 424.54,571.7031 442,595.9531 C461.26,622.7031 486.12,648.1631 510.58,670.1431 " fill="none" id="Status&lt;-NamaPelanggan" style="stroke: #2B6CB0; stroke-width: 1.0;"/><polygon fill="#2B6CB0" points="398.27,510.7231,397.7996,520.5607,400.0802,515.384,405.257,517.6645,398.27,510.7231" style="stroke: #2B6CB0; stroke-width: 1.0;"/><text fill="#000000" font-family="sans-serif" font-size="13" lengthAdjust="spacingAndGlyphs" textLength="140" x="443" y="592.02">memiliki &lt; (status_id)</text><text fill="#000000" font-family="sans-serif" font-size="13" lengthAdjust="spacingAndGlyphs" textLength="8" x="392.0356" y="530.6169">1</text><text fill="#000000" font-family="sans-serif" font-size="13" lengthAdjust="spacingAndGlyphs" textLength="23" x="480.1325" y="661.5141">0..*</text><!--MD5=[0598d897e9309a41d2cd6666a1ccd01e]
link LivewireHome to NamaPelanggan--><path d="M737.68,252.1531 C766.6,341.5531 797.36,484.3131 749,595.9531 C741.25,613.8431 730.86,612.2431 717,625.9531 C712.3,630.6031 707.52,635.3831 702.71,640.2331 " fill="none" id="LivewireHome-&gt;NamaPelanggan" style="stroke: #2B6CB0; stroke-width: 1.0; stroke-dasharray: 7.0,7.0;"/><polygon fill="#2B6CB0" points="699.03,643.9631,708.208,640.3904,702.5512,640.4133,702.5283,634.7565,699.03,643.9631" style="stroke: #2B6CB0; stroke-width: 1.0;"/><text fill="#000000" font-family="sans-serif" font-size="13" lengthAdjust="spacingAndGlyphs" textLength="96" x="775" y="455.02">creates / reads</text><!--MD5=[d95635d50b2faa8e3e92ef406b2c1bb0]
link LivewireHome to Keluhan--><path d="M677.62,252.2031 C672.24,268.4331 666.54,285.2531 661,300.9531 C651.17,328.8431 639.74,359.4431 629.78,385.5831 " fill="none" id="LivewireHome-&gt;Keluhan" style="stroke: #2B6CB0; stroke-width: 1.0; stroke-dasharray: 7.0,7.0;"/><polygon fill="#2B6CB0" points="627.94,390.4131,634.8712,383.4161,629.7128,385.738,627.391,380.5796,627.94,390.4131" style="stroke: #2B6CB0; stroke-width: 1.0;"/><text fill="#000000" font-family="sans-serif" font-size="13" lengthAdjust="spacingAndGlyphs" textLength="36" x="667" y="297.02">reads</text><!--MD5=[0f56473d3977e57b5acaffea7959fd23]
link LivewireHome to Status--><path d="M640.11,251.9631 C629.39,261.4631 617.61,269.8831 605,275.9531 C581.52,287.2531 510.51,270.8131 488,283.9531 C449.18,306.6131 421.6,349.2431 403.89,385.5531 " fill="none" id="LivewireHome-&gt;Status" style="stroke: #2B6CB0; stroke-width: 1.0; stroke-dasharray: 7.0,7.0;"/><polygon fill="#2B6CB0" points="401.57,390.4131,409.0595,384.0172,403.7258,385.9017,401.8413,380.568,401.57,390.4131" style="stroke: #2B6CB0; stroke-width: 1.0;"/><text fill="#000000" font-family="sans-serif" font-size="13" lengthAdjust="spacingAndGlyphs" textLength="36" x="489" y="297.02">reads</text><!--MD5=[cd7f4ec2e26b1a38be40fa6e01c273b9]
link NamaPelangganResource to NamaPelanggan--><path d="M955.09,213.4731 C959.39,291.2631 957,449.0431 880,548.9531 C831.09,612.4131 782.01,579.1231 717,625.9531 C712.28,629.3531 707.58,632.9731 702.95,636.7531 " fill="none" id="NamaPelangganResource-&gt;NamaPelanggan" style="stroke: #2B6CB0; stroke-width: 1.0; stroke-dasharray: 7.0,7.0;"/><polygon fill="#2B6CB0" points="699.07,639.9531,708.5564,637.3059,702.9251,636.7691,703.462,631.1378,699.07,639.9531" style="stroke: #2B6CB0; stroke-width: 1.0;"/><text fill="#000000" font-family="sans-serif" font-size="13" lengthAdjust="spacingAndGlyphs" textLength="111" x="955" y="455.02">manages (CRUD)</text><!--MD5=[f661fbbbc388a4cccaa213f51c61ed0f]
link KeluhanResource to Keluhan--><path d="M502.4,206.9731 C512.78,233.6931 526.92,269.5431 540,300.9531 C551.61,328.8331 564.91,359.4331 576.44,385.5831 " fill="none" id="KeluhanResource-&gt;Keluhan" style="stroke: #2B6CB0; stroke-width: 1.0; stroke-dasharray: 7.0,7.0;"/><polygon fill="#2B6CB0" points="578.57,390.4031,578.5871,380.5543,576.5472,385.8305,571.271,383.7907,578.57,390.4031" style="stroke: #2B6CB0; stroke-width: 1.0;"/><text fill="#000000" font-family="sans-serif" font-size="13" lengthAdjust="spacingAndGlyphs" textLength="111" x="541" y="297.02">manages (CRUD)</text><!--MD5=[e7d8fd9214b40c14253e0e766d8a85d8]
link StatusResource to Status--><path d="M267.02,207.1331 C275.51,234.0731 287.7,270.1231 301,300.9531 C313.26,329.3931 328.8,359.8331 342.77,385.6931 " fill="none" id="StatusResource-&gt;Status" style="stroke: #2B6CB0; stroke-width: 1.0; stroke-dasharray: 7.0,7.0;"/><polygon fill="#2B6CB0" points="345.18,390.1431,344.4065,380.3247,342.7967,385.7477,337.3738,384.1379,345.18,390.1431" style="stroke: #2B6CB0; stroke-width: 1.0;"/><text fill="#000000" font-family="sans-serif" font-size="13" lengthAdjust="spacingAndGlyphs" textLength="111" x="302" y="297.02">manages (CRUD)</text><!--MD5=[e5c173c56ff2840303541461d9072353]
@startuml class_diagram
skinparam backgroundColor #FFFFFF
skinparam handwritten false
skinparam monochrome false
skinparam shadowing true

skinparam class {
    BorderColor #2B6CB0
    BackgroundColor #EBF8FF
    FontColor #1A365D
    FontSize 13
    AttributeFontColor #2D3748
    AttributeFontSize 11
    MethodFontColor #1A365D
    MethodFontSize 11
    HeaderBackgroundColor #BEE3F8
    ArrowColor #2B6CB0
}

skinparam package {
    BorderColor #4A5568
    FontColor #1A365D
    FontSize 14
    FontStyle bold
    BackgroundColor #F7FAFC
}

title "Diagram Kelas (Class Diagram) - Sistem Informasi Laporan Gangguan BRS NET"

package "Domain Models (Eloquent ORM)" {
    
    class "NamaPelanggan\n(Tiket Pengaduan)" as NamaPelanggan {
        - id: BigInteger <<PK>>
        - kode_ticket: String <<Unique>>
        - nama_pelanggan: String
        - alamat: Text
        - keluhan_id: BigInteger <<FK>>
        - status_id: BigInteger <<FK>>
        - latitude: Decimal(10,8)
        - longitude: Decimal(11,8)
        - google_maps_link: String
        - created_at: Timestamp
        - updated_at: Timestamp
        - -
        + static booted(): void
        + status(): BelongsTo
        + keluhan(): BelongsTo
    }

    class "Keluhan\n(Master Gangguan)" as Keluhan {
        - id: BigInteger <<PK>>
        - nama_keluhan: String
        - created_at: Timestamp
        - updated_at: Timestamp
        - -
        + namaPelanggans(): HasMany
    }

    class "Status\n(Master Status)" as Status {
        - id: BigInteger <<PK>>
        - nama_status: String
        - created_at: Timestamp
        - updated_at: Timestamp
        - -
        + namaPelanggans(): HasMany
    }

    class "User\n(Admin & Teknisi)" as User {
        - id: BigInteger <<PK>>
        - name: String
        - email: String <<Unique>>
        - password: String
        - avatar_url: String
        - remember_token: String
        - created_at: Timestamp
        - updated_at: Timestamp
        - -
        + getFilamentAvatarUrl(): String
        + canAccessPanel(Panel): Boolean
        + hasRole(Roles): Boolean
    }
}

package "Presentation & Control Layer (Livewire & Filament)" {
    
    class "Livewire\\Home\n(Portal Publik)" as LivewireHome {
        + nama_pelanggan: String
        + keluhan_id: Integer
        + alamat: String
        + latitude: Float
        + longitude: Float
        + ticket_code: String
        - -
        + saveComplaint(): void
        + searchTicket(): void
        + render(): View
    }

    class "Filament\\NamaPelangganResource\n(Manajemen Tiket)" as NamaPelangganResource {
        + static form(Form): Form
        + static table(Table): Table
        + static getPages(): Array
    }

    class "Filament\\KeluhanResource\n(Manajemen Keluhan)" as KeluhanResource {
        + static form(Form): Form
        + static table(Table): Table
    }

    class "Filament\\StatusResource\n(Manajemen Status)" as StatusResource {
        + static form(Form): Form
        + static table(Table): Table
    }
}

Keluhan "1" <- - "0..*" NamaPelanggan : "memiliki < (keluhan_id)"
Status "1" <- - "0..*" NamaPelanggan : "memiliki < (status_id)"

LivewireHome ..> NamaPelanggan : "creates / reads"
LivewireHome ..> Keluhan : "reads"
LivewireHome ..> Status : "reads"

NamaPelangganResource ..> NamaPelanggan : "manages (CRUD)"
KeluhanResource ..> Keluhan : "manages (CRUD)"
StatusResource ..> Status : "manages (CRUD)"

note right of NamaPelanggan
  <b>SBDT Architecture:</b>
  - Write/Insert ➔ db_master
  - Read/Select ➔ db_slave1 / db_slave2
  - Otomatis generate kode_ticket
    pada method booted()
end note

@enduml

PlantUML version 1.2020.02(Sun Mar 01 17:22:07 WIB 2020)
(GPL source distribution)
Java Runtime: OpenJDK Runtime Environment
JVM: OpenJDK 64-Bit Server VM
Java Version: 21.0.11+10-1-22.04.2-Ubuntu
Operating System: Linux
Default Encoding: UTF-8
Language: en
Country: null
--></g></svg>